<svg xmlns="http://www.w3.org/2000/svg" width="89" height="30" viewBox="0 0 89 30"><path fill="#1a1918" d="M44.12 18.93c0 3.47-.93 6.18-2.79 8.12-1.86 1.94-4.47 2.91-7.82 2.91-3.21 0-5.76-.99-7.66-2.98C23.95 25 23 22.32 23 18.93c0-3.45.93-6.14 2.79-8.06C27.65 8.96 30.26 8 33.62 8c2.08 0 3.92.44 5.51 1.33a9.04 9.04 0 0 1 3.69 3.81c.87 1.65 1.3 3.58 1.3 5.79zM31.14 23.1c.49.95 1.3 1.43 2.45 1.43 1.13 0 1.93-.48 2.4-1.43.46-.96.7-2.34.7-4.17 0-1.81-.24-3.17-.71-4.1-.48-.92-1.28-1.38-2.43-1.38-1.12 0-1.92.46-2.41 1.37-.48.92-.73 2.29-.73 4.11 0 1.83.25 3.21.73 4.17zM55.3 21.54c0 1.55 1.13 1.55 1.84 1.69v5.9h-4.73s-4.41.02-4.41-5.8V0h7.3v21.54M67.49 29.51a6.31 6.31 0 0 1-3.95-1.3 8.16 8.16 0 0 1-2.62-3.8 17.04 17.04 0 0 1-.92-5.86c0-3.44.69-6.14 2.07-8.08a6.61 6.61 0 0 1 5.7-2.93c1.18 0 2.22.24 3.11.72a6.8 6.8 0 0 1 2.43 2.39c-.23-1.66-.2-3.32-.2-4.98V0h7.35v29.13h-5.5l-1.57-2.68h-.28a6.18 6.18 0 0 1-5.62 3.06zm5.46-6.89c.48-.74.74-1.88.77-3.41v-.58c0-1.87-.26-3.21-.8-4-.53-.79-1.37-1.19-2.52-1.19-.96 0-1.7.45-2.23 1.36-.53.9-.79 2.19-.79 3.87 0 1.64.26 2.9.8 3.76.53.86 1.3 1.29 2.29 1.29 1.17 0 2-.37 2.48-1.1zM7.36 26.45h-.28l-1.57 2.68H0V0h7.36v5.67c0 1.66.03 3.32-.21 4.98a6.9 6.9 0 0 1 2.44-2.39 6.43 6.43 0 0 1 3.11-.72 6.6 6.6 0 0 1 5.69 2.93c1.38 1.94 2.07 4.64 2.07 8.08 0 2.24-.3 4.19-.92 5.86a8.22 8.22 0 0 1-2.61 3.8 6.35 6.35 0 0 1-3.95 1.3 6.17 6.17 0 0 1-5.62-3.06zm5.73-7.78c0-1.68-.27-2.97-.79-3.87-.53-.91-1.28-1.36-2.24-1.36-1.14 0-1.98.4-2.52 1.19-.53.79-.8 2.13-.8 4v.58c.04 1.53.3 2.67.78 3.41.47.73 1.3 1.1 2.47 1.1 1 0 1.76-.43 2.3-1.29.53-.86.8-2.12.8-3.76zM86.42 25c.66 0 1.23.24 1.7.71.48.48.71 1.05.71 1.71a2.3 2.3 0 0 1-.71 1.71 2.3 2.3 0 0 1-1.7.72 2.3 2.3 0 0 1-1.71-.72 2.33 2.33 0 0 1-.71-1.71c0-.66.24-1.23.71-1.71a2.33 2.33 0 0 1 1.71-.71zm-.01 4.45c.56 0 1.03-.2 1.43-.6.39-.4.59-.87.59-1.43 0-.56-.2-1.03-.59-1.43-.4-.39-.87-.59-1.43-.59-.55 0-1.02.2-1.42.59-.39.4-.59.87-.59 1.43 0 .56.2 1.03.59 1.43.4.4.87.6 1.42.6zm1.13-.69h-.51a4.3 4.3 0 0 0-.63-.99.58.58 0 0 0-.37-.11h-.25v1.1h-.42v-2.6h.9c.27 0 .47.02.62.06.14.04.26.12.35.24a.7.7 0 0 1 .14.4c0 .18-.07.34-.2.49-.12.14-.31.22-.55.24v.01c.16.04.36.26.61.66zm-1.25-1.46c.23 0 .4-.04.49-.11a.34.34 0 0 0 .14-.29.32.32 0 0 0-.14-.28c-.08-.07-.26-.11-.52-.11h-.48v.79z"/></svg>